<svg width="494" height="509" viewBox="0 0 494 509" fill="none" xmlns="http://www.w3.org/2000/svg">
    <path fill-rule="evenodd" clip-rule="evenodd" d="M4 72C6.20914 72 8 70.2091 8 68C8 65.7909 6.20914 64 4 64C1.79086 64 0 65.7909 0 68C0 70.2091 1.79086 72 4 72Z" fill="#16171F"/>
    <path fill-rule="evenodd" clip-rule="evenodd" d="M4 95C6.20914 95 8 93.2091 8 91C8 88.7909 6.20914 87 4 87C1.79086 87 0 88.7909 0 91C0 93.2091 1.79086 95 4 95Z" fill="#16171F"/>
    <path fill-rule="evenodd" clip-rule="evenodd" d="M27 72C29.2091 72 31 70.2091 31 68C31 65.7909 29.2091 64 27 64C24.7909 64 23 65.7909 23 68C23 70.2091 24.7909 72 27 72Z" fill="#16171F"/>
    <path fill-rule="evenodd" clip-rule="evenodd" d="M27 95C29.2091 95 31 93.2091 31 91C31 88.7909 29.2091 87 27 87C24.7909 87 23 88.7909 23 91C23 93.2091 24.7909 95 27 95Z" fill="#16171F"/>
    <path fill-rule="evenodd" clip-rule="evenodd" d="M50 72C52.2091 72 54 70.2091 54 68C54 65.7909 52.2091 64 50 64C47.7909 64 46 65.7909 46 68C46 70.2091 47.7909 72 50 72Z" fill="#16171F"/>
    <path fill-rule="evenodd" clip-rule="evenodd" d="M50 95C52.2091 95 54 93.2091 54 91C54 88.7909 52.2091 87 50 87C47.7909 87 46 88.7909 46 91C46 93.2091 47.7909 95 50 95Z" fill="#16171F"/>
    <path fill-rule="evenodd" clip-rule="evenodd" d="M73 72C75.2091 72 77 70.2091 77 68C77 65.7909 75.2091 64 73 64C70.7909 64 69 65.7909 69 68C69 70.2091 70.7909 72 73 72Z" fill="#16171F"/>
    <path fill-rule="evenodd" clip-rule="evenodd" d="M73 95C75.2091 95 77 93.2091 77 91C77 88.7909 75.2091 87 73 87C70.7909 87 69 88.7909 69 91C69 93.2091 70.7909 95 73 95Z" fill="#16171F"/>
    <path fill-rule="evenodd" clip-rule="evenodd" d="M96 72C98.2091 72 100 70.2091 100 68C100 65.7909 98.2091 64 96 64C93.7909 64 92 65.7909 92 68C92 70.2091 93.7909 72 96 72Z" fill="#16171F"/>
    <path fill-rule="evenodd" clip-rule="evenodd" d="M96 95C98.2091 95 100 93.2091 100 91C100 88.7909 98.2091 87 96 87C93.7909 87 92 88.7909 92 91C92 93.2091 93.7909 95 96 95Z" fill="#16171F"/>
    <path fill-rule="evenodd" clip-rule="evenodd" d="M119 72C121.209 72 123 70.2091 123 68C123 65.7909 121.209 64 119 64C116.791 64 115 65.7909 115 68C115 70.2091 116.791 72 119 72Z" fill="#16171F"/>
    <path fill-rule="evenodd" clip-rule="evenodd" d="M119 95C121.209 95 123 93.2091 123 91C123 88.7909 121.209 87 119 87C116.791 87 115 88.7909 115 91C115 93.2091 116.791 95 119 95Z" fill="#16171F"/>
    <path fill-rule="evenodd" clip-rule="evenodd" d="M4 118C6.20914 118 8 116.209 8 114C8 111.791 6.20914 110 4 110C1.79086 110 0 111.791 0 114C0 116.209 1.79086 118 4 118Z" fill="#16171F"/>
    <path fill-rule="evenodd" clip-rule="evenodd" d="M27 118C29.2091 118 31 116.209 31 114C31 111.791 29.2091 110 27 110C24.7909 110 23 111.791 23 114C23 116.209 24.7909 118 27 118Z" fill="#16171F"/>
    <path fill-rule="evenodd" clip-rule="evenodd" d="M50 118C52.2091 118 54 116.209 54 114C54 111.791 52.2091 110 50 110C47.7909 110 46 111.791 46 114C46 116.209 47.7909 118 50 118Z" fill="#16171F"/>
    <path fill-rule="evenodd" clip-rule="evenodd" d="M73 118C75.2091 118 77 116.209 77 114C77 111.791 75.2091 110 73 110C70.7909 110 69 111.791 69 114C69 116.209 70.7909 118 73 118Z" fill="#16171F"/>
    <path fill-rule="evenodd" clip-rule="evenodd" d="M96 118C98.2091 118 100 116.209 100 114C100 111.791 98.2091 110 96 110C93.7909 110 92 111.791 92 114C92 116.209 93.7909 118 96 118Z" fill="#16171F"/>
    <path fill-rule="evenodd" clip-rule="evenodd" d="M119 118C121.209 118 123 116.209 123 114C123 111.791 121.209 110 119 110C116.791 110 115 111.791 115 114C115 116.209 116.791 118 119 118Z" fill="#16171F"/>
    <path fill-rule="evenodd" clip-rule="evenodd" d="M4 141C6.20914 141 8 139.209 8 137C8 134.791 6.20914 133 4 133C1.79086 133 0 134.791 0 137C0 139.209 1.79086 141 4 141Z" fill="#16171F"/>
    <path fill-rule="evenodd" clip-rule="evenodd" d="M27 141C29.2091 141 31 139.209 31 137C31 134.791 29.2091 133 27 133C24.7909 133 23 134.791 23 137C23 139.209 24.7909 141 27 141Z" fill="#16171F"/>
    <path fill-rule="evenodd" clip-rule="evenodd" d="M50 141C52.2091 141 54 139.209 54 137C54 134.791 52.2091 133 50 133C47.7909 133 46 134.791 46 137C46 139.209 47.7909 141 50 141Z" fill="#16171F"/>
    <path fill-rule="evenodd" clip-rule="evenodd" d="M73 141C75.2091 141 77 139.209 77 137C77 134.791 75.2091 133 73 133C70.7909 133 69 134.791 69 137C69 139.209 70.7909 141 73 141Z" fill="#16171F"/>
    <path fill-rule="evenodd" clip-rule="evenodd" d="M96 141C98.2091 141 100 139.209 100 137C100 134.791 98.2091 133 96 133C93.7909 133 92 134.791 92 137C92 139.209 93.7909 141 96 141Z" fill="#16171F"/>
    <path fill-rule="evenodd" clip-rule="evenodd" d="M119 141C121.209 141 123 139.209 123 137C123 134.791 121.209 133 119 133C116.791 133 115 134.791 115 137C115 139.209 116.791 141 119 141Z" fill="#16171F"/>
    <path fill-rule="evenodd" clip-rule="evenodd" d="M4 164C6.20914 164 8 162.209 8 160C8 157.791 6.20914 156 4 156C1.79086 156 0 157.791 0 160C0 162.209 1.79086 164 4 164Z" fill="#16171F"/>
    <path fill-rule="evenodd" clip-rule="evenodd" d="M27 164C29.2091 164 31 162.209 31 160C31 157.791 29.2091 156 27 156C24.7909 156 23 157.791 23 160C23 162.209 24.7909 164 27 164Z" fill="#16171F"/>
    <path fill-rule="evenodd" clip-rule="evenodd" d="M50 164C52.2091 164 54 162.209 54 160C54 157.791 52.2091 156 50 156C47.7909 156 46 157.791 46 160C46 162.209 47.7909 164 50 164Z" fill="#16171F"/>
    <path fill-rule="evenodd" clip-rule="evenodd" d="M73 164C75.2091 164 77 162.209 77 160C77 157.791 75.2091 156 73 156C70.7909 156 69 157.791 69 160C69 162.209 70.7909 164 73 164Z" fill="#16171F"/>
    <path fill-rule="evenodd" clip-rule="evenodd" d="M96 164C98.2091 164 100 162.209 100 160C100 157.791 98.2091 156 96 156C93.7909 156 92 157.791 92 160C92 162.209 93.7909 164 96 164Z" fill="#16171F"/>
    <path fill-rule="evenodd" clip-rule="evenodd" d="M119 164C121.209 164 123 162.209 123 160C123 157.791 121.209 156 119 156C116.791 156 115 157.791 115 160C115 162.209 116.791 164 119 164Z" fill="#16171F"/>
    <path fill-rule="evenodd" clip-rule="evenodd" d="M4 187C6.20914 187 8 185.209 8 183C8 180.791 6.20914 179 4 179C1.79086 179 0 180.791 0 183C0 185.209 1.79086 187 4 187Z" fill="#16171F"/>
    <path fill-rule="evenodd" clip-rule="evenodd" d="M27 187C29.2091 187 31 185.209 31 183C31 180.791 29.2091 179 27 179C24.7909 179 23 180.791 23 183C23 185.209 24.7909 187 27 187Z" fill="#16171F"/>
    <path fill-rule="evenodd" clip-rule="evenodd" d="M50 187C52.2091 187 54 185.209 54 183C54 180.791 52.2091 179 50 179C47.7909 179 46 180.791 46 183C46 185.209 47.7909 187 50 187Z" fill="#16171F"/>
    <path fill-rule="evenodd" clip-rule="evenodd" d="M73 187C75.2091 187 77 185.209 77 183C77 180.791 75.2091 179 73 179C70.7909 179 69 180.791 69 183C69 185.209 70.7909 187 73 187Z" fill="#16171F"/>
    <path fill-rule="evenodd" clip-rule="evenodd" d="M96 187C98.2091 187 100 185.209 100 183C100 180.791 98.2091 179 96 179C93.7909 179 92 180.791 92 183C92 185.209 93.7909 187 96 187Z" fill="#16171F"/>
    <path fill-rule="evenodd" clip-rule="evenodd" d="M119 187C121.209 187 123 185.209 123 183C123 180.791 121.209 179 119 179C116.791 179 115 180.791 115 183C115 185.209 116.791 187 119 187Z" fill="#16171F"/>
    <path fill-rule="evenodd" clip-rule="evenodd" d="M4 207C6.20914 207 8 205.209 8 203C8 200.791 6.20914 199 4 199C1.79086 199 0 200.791 0 203C0 205.209 1.79086 207 4 207Z" fill="#16171F"/>
    <path fill-rule="evenodd" clip-rule="evenodd" d="M4 230C6.20914 230 8 228.209 8 226C8 223.791 6.20914 222 4 222C1.79086 222 0 223.791 0 226C0 228.209 1.79086 230 4 230Z" fill="#16171F"/>
    <path fill-rule="evenodd" clip-rule="evenodd" d="M27 207C29.2091 207 31 205.209 31 203C31 200.791 29.2091 199 27 199C24.7909 199 23 200.791 23 203C23 205.209 24.7909 207 27 207Z" fill="#16171F"/>
    <path fill-rule="evenodd" clip-rule="evenodd" d="M27 230C29.2091 230 31 228.209 31 226C31 223.791 29.2091 222 27 222C24.7909 222 23 223.791 23 226C23 228.209 24.7909 230 27 230Z" fill="#16171F"/>
    <path fill-rule="evenodd" clip-rule="evenodd" d="M50 207C52.2091 207 54 205.209 54 203C54 200.791 52.2091 199 50 199C47.7909 199 46 200.791 46 203C46 205.209 47.7909 207 50 207Z" fill="#16171F"/>
    <path fill-rule="evenodd" clip-rule="evenodd" d="M50 230C52.2091 230 54 228.209 54 226C54 223.791 52.2091 222 50 222C47.7909 222 46 223.791 46 226C46 228.209 47.7909 230 50 230Z" fill="#16171F"/>
    <path fill-rule="evenodd" clip-rule="evenodd" d="M73 207C75.2091 207 77 205.209 77 203C77 200.791 75.2091 199 73 199C70.7909 199 69 200.791 69 203C69 205.209 70.7909 207 73 207Z" fill="#16171F"/>
    <path fill-rule="evenodd" clip-rule="evenodd" d="M73 230C75.2091 230 77 228.209 77 226C77 223.791 75.2091 222 73 222C70.7909 222 69 223.791 69 226C69 228.209 70.7909 230 73 230Z" fill="#16171F"/>
    <path fill-rule="evenodd" clip-rule="evenodd" d="M96 207C98.2091 207 100 205.209 100 203C100 200.791 98.2091 199 96 199C93.7909 199 92 200.791 92 203C92 205.209 93.7909 207 96 207Z" fill="#16171F"/>
    <path fill-rule="evenodd" clip-rule="evenodd" d="M96 230C98.2091 230 100 228.209 100 226C100 223.791 98.2091 222 96 222C93.7909 222 92 223.791 92 226C92 228.209 93.7909 230 96 230Z" fill="#16171F"/>
    <path fill-rule="evenodd" clip-rule="evenodd" d="M119 207C121.209 207 123 205.209 123 203C123 200.791 121.209 199 119 199C116.791 199 115 200.791 115 203C115 205.209 116.791 207 119 207Z" fill="#16171F"/>
    <path fill-rule="evenodd" clip-rule="evenodd" d="M119 230C121.209 230 123 228.209 123 226C123 223.791 121.209 222 119 222C116.791 222 115 223.791 115 226C115 228.209 116.791 230 119 230Z" fill="#16171F"/>
    <path fill-rule="evenodd" clip-rule="evenodd" d="M4 253C6.20914 253 8 251.209 8 249C8 246.791 6.20914 245 4 245C1.79086 245 0 246.791 0 249C0 251.209 1.79086 253 4 253Z" fill="#16171F"/>
    <path fill-rule="evenodd" clip-rule="evenodd" d="M27 253C29.2091 253 31 251.209 31 249C31 246.791 29.2091 245 27 245C24.7909 245 23 246.791 23 249C23 251.209 24.7909 253 27 253Z" fill="#16171F"/>
    <path fill-rule="evenodd" clip-rule="evenodd" d="M50 253C52.2091 253 54 251.209 54 249C54 246.791 52.2091 245 50 245C47.7909 245 46 246.791 46 249C46 251.209 47.7909 253 50 253Z" fill="#16171F"/>
    <path fill-rule="evenodd" clip-rule="evenodd" d="M73 253C75.2091 253 77 251.209 77 249C77 246.791 75.2091 245 73 245C70.7909 245 69 246.791 69 249C69 251.209 70.7909 253 73 253Z" fill="#16171F"/>
    <path fill-rule="evenodd" clip-rule="evenodd" d="M96 253C98.2091 253 100 251.209 100 249C100 246.791 98.2091 245 96 245C93.7909 245 92 246.791 92 249C92 251.209 93.7909 253 96 253Z" fill="#16171F"/>
    <path fill-rule="evenodd" clip-rule="evenodd" d="M119 253C121.209 253 123 251.209 123 249C123 246.791 121.209 245 119 245C116.791 245 115 246.791 115 249C115 251.209 116.791 253 119 253Z" fill="#16171F"/>
    <path fill-rule="evenodd" clip-rule="evenodd" d="M4 276C6.20914 276 8 274.209 8 272C8 269.791 6.20914 268 4 268C1.79086 268 0 269.791 0 272C0 274.209 1.79086 276 4 276Z" fill="#16171F"/>
    <path fill-rule="evenodd" clip-rule="evenodd" d="M27 276C29.2091 276 31 274.209 31 272C31 269.791 29.2091 268 27 268C24.7909 268 23 269.791 23 272C23 274.209 24.7909 276 27 276Z" fill="#16171F"/>
    <path fill-rule="evenodd" clip-rule="evenodd" d="M50 276C52.2091 276 54 274.209 54 272C54 269.791 52.2091 268 50 268C47.7909 268 46 269.791 46 272C46 274.209 47.7909 276 50 276Z" fill="#16171F"/>
    <path fill-rule="evenodd" clip-rule="evenodd" d="M73 276C75.2091 276 77 274.209 77 272C77 269.791 75.2091 268 73 268C70.7909 268 69 269.791 69 272C69 274.209 70.7909 276 73 276Z" fill="#16171F"/>
    <path fill-rule="evenodd" clip-rule="evenodd" d="M96 276C98.2091 276 100 274.209 100 272C100 269.791 98.2091 268 96 268C93.7909 268 92 269.791 92 272C92 274.209 93.7909 276 96 276Z" fill="#16171F"/>
    <path fill-rule="evenodd" clip-rule="evenodd" d="M119 276C121.209 276 123 274.209 123 272C123 269.791 121.209 268 119 268C116.791 268 115 269.791 115 272C115 274.209 116.791 276 119 276Z" fill="#16171F"/>
    <path fill-rule="evenodd" clip-rule="evenodd" d="M4 299C6.20914 299 8 297.209 8 295C8 292.791 6.20914 291 4 291C1.79086 291 0 292.791 0 295C0 297.209 1.79086 299 4 299Z" fill="#16171F"/>
    <path fill-rule="evenodd" clip-rule="evenodd" d="M27 299C29.2091 299 31 297.209 31 295C31 292.791 29.2091 291 27 291C24.7909 291 23 292.791 23 295C23 297.209 24.7909 299 27 299Z" fill="#16171F"/>
    <path fill-rule="evenodd" clip-rule="evenodd" d="M50 299C52.2091 299 54 297.209 54 295C54 292.791 52.2091 291 50 291C47.7909 291 46 292.791 46 295C46 297.209 47.7909 299 50 299Z" fill="#16171F"/>
    <path fill-rule="evenodd" clip-rule="evenodd" d="M73 299C75.2091 299 77 297.209 77 295C77 292.791 75.2091 291 73 291C70.7909 291 69 292.791 69 295C69 297.209 70.7909 299 73 299Z" fill="#16171F"/>
    <path fill-rule="evenodd" clip-rule="evenodd" d="M96 299C98.2091 299 100 297.209 100 295C100 292.791 98.2091 291 96 291C93.7909 291 92 292.791 92 295C92 297.209 93.7909 299 96 299Z" fill="#16171F"/>
    <path fill-rule="evenodd" clip-rule="evenodd" d="M119 299C121.209 299 123 297.209 123 295C123 292.791 121.209 291 119 291C116.791 291 115 292.791 115 295C115 297.209 116.791 299 119 299Z" fill="#16171F"/>
    <path fill-rule="evenodd" clip-rule="evenodd" d="M4 322C6.20914 322 8 320.209 8 318C8 315.791 6.20914 314 4 314C1.79086 314 0 315.791 0 318C0 320.209 1.79086 322 4 322Z" fill="#16171F"/>
    <path fill-rule="evenodd" clip-rule="evenodd" d="M27 322C29.2091 322 31 320.209 31 318C31 315.791 29.2091 314 27 314C24.7909 314 23 315.791 23 318C23 320.209 24.7909 322 27 322Z" fill="#16171F"/>
    <path fill-rule="evenodd" clip-rule="evenodd" d="M50 322C52.2091 322 54 320.209 54 318C54 315.791 52.2091 314 50 314C47.7909 314 46 315.791 46 318C46 320.209 47.7909 322 50 322Z" fill="#16171F"/>
    <path fill-rule="evenodd" clip-rule="evenodd" d="M73 322C75.2091 322 77 320.209 77 318C77 315.791 75.2091 314 73 314C70.7909 314 69 315.791 69 318C69 320.209 70.7909 322 73 322Z" fill="#16171F"/>
    <path fill-rule="evenodd" clip-rule="evenodd" d="M96 322C98.2091 322 100 320.209 100 318C100 315.791 98.2091 314 96 314C93.7909 314 92 315.791 92 318C92 320.209 93.7909 322 96 322Z" fill="#16171F"/>
    <path fill-rule="evenodd" clip-rule="evenodd" d="M119 322C121.209 322 123 320.209 123 318C123 315.791 121.209 314 119 314C116.791 314 115 315.791 115 318C115 320.209 116.791 322 119 322Z" fill="#16171F"/>
    <path d="M34.0427 139.593L270.871 3.91734C275.106 1.5051 280.628 0.325782 285.452 1.39789C292.153 2.95245 298.425 5.09666 298.425 10.9397L298.8 231.043L277.947 243.373C284.755 246.696 492.637 347.85 493.012 348.118L493.495 356.587C493.495 360.233 491.565 363.61 488.402 365.486C453.023 385.963 245.73 505.825 245.73 505.825C238.923 509.792 230.507 509.792 223.699 505.825L26.6452 391.967C24.6082 390.788 23.3216 388.59 23.3216 386.231L23 158.676C23 150.743 27.1812 143.506 34.0427 139.593Z" fill="#1A1B21" stroke="black" stroke-width="0.042" stroke-linecap="round"/>
    <path d="M29.915 385.475L298.961 231.949L299.497 12.328C299.497 6.00254 292.635 1.98214 287.167 5.14485L39.0816 147.253C33.6674 150.362 30.3439 156.098 30.3439 162.316L29.915 385.475Z" fill="url(#paint0_linear)" stroke="black" stroke-width="0.042" stroke-linecap="round"/>
    <path d="M288.454 17.9031L42.1371 159.261L41.6547 366.017L288.454 224.338V17.9031Z" fill="url(#paint1_linear)" stroke="black" stroke-width="0.042"/>
    <path d="M222.144 92.6825L76.7126 169.445L76.7662 164.139L222.198 87.3756L222.144 92.6825Z" fill="#0094F5" stroke="black" stroke-width="0.042"/>
    <path d="M100.889 174.216L76.4982 187.082L76.5518 181.775L100.996 168.909L100.889 174.216Z" fill="#0094F5" stroke="black" stroke-width="0.042"/>
    <path d="M221.93 110.319L174.811 135.192L174.864 129.885L221.983 105.012L221.93 110.319Z" fill="#0094F5" stroke="black" stroke-width="0.042"/>
    <path d="M221.554 137.389L76.1765 214.206L76.2301 208.899L221.662 132.136L221.554 137.389Z" fill="#0094F5" stroke="black" stroke-width="0.042"/>
    <path d="M220.161 250.497L74.7828 327.26L74.8364 321.953L220.214 245.19L220.161 250.497Z" fill="#0094F5" stroke="black" stroke-width="0.042"/>
    <path d="M221.34 155.079L75.9622 231.842L76.0158 226.535L221.447 149.772L221.34 155.079Z" fill="#0094F5" stroke="black" stroke-width="0.042"/>
    <path d="M110.806 229.216L75.7477 247.763L75.8013 242.456L110.859 223.962L110.806 229.216Z" fill="#0094F5" stroke="black" stroke-width="0.042"/>
    <path d="M110.323 269.205L75.2653 287.699L75.3189 282.392L110.377 263.898L110.323 269.205Z" fill="#0094F5" stroke="black" stroke-width="0.042"/>
    <path d="M157.067 244.493L115.469 266.471L115.523 261.164L157.121 239.24L157.067 244.493Z" fill="#0094F5" stroke="black" stroke-width="0.042"/>
    <path d="M156.799 264.005L115.255 285.984L115.308 280.677L156.906 258.752L156.799 264.005Z" fill="#0094F5" stroke="black" stroke-width="0.042"/>
    <path d="M220.643 210.936L171.862 236.72L171.916 231.413L220.75 205.629L220.643 210.936Z" fill="#0094F5" stroke="black" stroke-width="0.042"/>
    <path d="M220.911 190.405L172.077 216.189L172.184 210.882L220.965 185.098L220.911 190.405Z" fill="#0094F5" stroke="black" stroke-width="0.042"/>
    <path d="M262.831 168.266L229.488 185.849L229.595 180.595L262.938 162.959L262.831 168.266Z" fill="#0094F5" stroke="black" stroke-width="0.042"/>
    <path d="M263.313 132.94L229.97 150.523L230.024 145.269L263.367 127.633L263.313 132.94Z" fill="#0094F5" stroke="black" stroke-width="0.042"/>
    <path d="M263.849 88.1799L230.507 105.816L230.56 100.509L263.903 82.8729L263.849 88.1799Z" fill="#0094F5" stroke="black" stroke-width="0.042"/>
    <path d="M30.0759 385.427L298.961 230.347L489.153 340.238C494.62 343.4 494.62 351.334 489.153 354.497L241.603 497.623C236.189 500.732 229.595 500.732 224.181 497.623L30.0759 385.427Z" fill="#14151B" stroke="black" stroke-width="0.042" stroke-linecap="round"/>
    <path d="M104.534 390.193C99.1733 393.248 96.493 394.803 91.1325 397.858C85.7183 394.803 82.9845 393.248 77.5703 390.193C82.9309 387.137 85.6111 385.582 90.9717 382.527C96.3858 385.636 99.1197 387.137 104.534 390.193Z" fill="url(#paint2_linear)" stroke="black" stroke-width="0.042" stroke-linecap="round"/>
    <path d="M124.261 378.882C118.9 381.937 116.22 383.492 110.859 386.547C105.445 383.492 102.765 381.937 97.2971 378.882C102.658 375.826 105.338 374.272 110.698 371.216C116.166 374.272 118.846 375.773 124.261 378.882Z" fill="url(#paint3_linear)" stroke="black" stroke-width="0.042" stroke-linecap="round"/>
    <path d="M144.041 367.518C138.68 370.573 136 372.128 130.64 375.183C125.226 372.128 122.545 370.573 117.078 367.518C122.438 364.462 125.118 362.907 130.479 359.852C135.893 362.907 138.627 364.462 144.041 367.518Z" fill="url(#paint4_linear)" stroke="black" stroke-width="0.042" stroke-linecap="round"/>
    <path d="M163.821 356.153C158.461 359.209 155.781 360.763 150.42 363.819C145.006 360.763 142.326 359.209 136.858 356.153C142.218 353.098 144.899 351.543 150.259 348.488C155.673 351.597 158.407 353.098 163.821 356.153Z" fill="url(#paint5_linear)" stroke="black" stroke-width="0.042" stroke-linecap="round"/>
    <path d="M183.548 344.789C178.188 347.844 175.507 349.399 170.147 352.454C164.733 349.399 162.052 347.844 156.585 344.789C161.945 341.733 164.625 340.179 169.986 337.123C175.454 340.232 178.134 341.733 183.548 344.789Z" fill="url(#paint6_linear)" stroke="black" stroke-width="0.042" stroke-linecap="round"/>
    <path d="M203.329 333.478C197.968 336.534 195.288 338.088 189.927 341.144C184.513 338.088 181.833 336.534 176.419 333.478C181.779 330.423 184.46 328.868 189.82 325.812C195.234 328.868 197.914 330.423 203.329 333.478Z" fill="url(#paint7_linear)" stroke="black" stroke-width="0.042" stroke-linecap="round"/>
    <path d="M223.109 322.114C217.748 325.169 215.068 326.724 209.708 329.779C204.294 326.724 201.56 325.169 196.146 322.114C201.506 319.058 204.186 317.504 209.547 314.448C214.961 317.504 217.695 319.058 223.109 322.114Z" fill="url(#paint8_linear)" stroke="black" stroke-width="0.042" stroke-linecap="round"/>
    <path d="M242.836 310.749C237.475 313.805 234.795 315.359 229.434 318.415C224.02 315.359 221.34 313.805 215.872 310.749C221.233 307.694 223.913 306.139 229.274 303.084C234.741 306.193 237.422 307.694 242.836 310.749Z" fill="url(#paint9_linear)" stroke="black" stroke-width="0.042" stroke-linecap="round"/>
    <path d="M262.616 299.439C257.256 302.494 254.575 304.049 249.215 307.104C243.801 304.049 241.067 302.494 235.653 299.439C241.013 296.383 243.693 294.829 249.054 291.773C254.468 294.829 257.202 296.383 262.616 299.439Z" fill="url(#paint10_linear)" stroke="black" stroke-width="0.042" stroke-linecap="round"/>
    <path d="M282.396 288.074C277.036 291.13 274.356 292.684 268.995 295.74C263.581 292.684 260.901 291.13 255.433 288.074C260.794 285.019 263.474 283.464 268.834 280.409C274.248 283.464 276.982 285.019 282.396 288.074Z" fill="url(#paint11_linear)" stroke="black" stroke-width="0.042" stroke-linecap="round"/>
    <path d="M302.123 276.71C296.763 279.766 294.083 281.32 288.722 284.376C283.308 281.32 280.628 279.766 275.16 276.71C280.52 273.654 283.201 272.1 288.561 269.044C294.029 272.154 296.709 273.654 302.123 276.71Z" fill="url(#paint12_linear)" stroke="black" stroke-width="0.042" stroke-linecap="round"/>
    <path d="M321.904 265.399C316.543 268.455 313.863 270.009 308.502 273.065C303.088 270.009 300.354 268.455 294.94 265.399C300.301 262.344 302.981 260.789 308.342 257.734C313.756 260.789 316.49 262.29 321.904 265.399Z" fill="url(#paint13_linear)" stroke="black" stroke-width="0.042" stroke-linecap="round"/>
    <path d="M123.51 400.967C118.15 404.023 115.469 405.577 110.109 408.633C104.695 405.577 102.014 404.023 96.5466 400.967C101.907 397.912 104.587 396.357 109.948 393.302C115.416 396.357 118.096 397.912 123.51 400.967Z" fill="url(#paint14_linear)" stroke="black" stroke-width="0.042" stroke-linecap="round"/>
    <path d="M143.291 389.603C137.93 392.659 135.25 394.213 129.889 397.269C124.475 394.213 121.795 392.659 116.327 389.603C121.688 386.547 124.368 384.993 129.728 381.937C135.143 384.993 137.876 386.547 143.291 389.603Z" fill="url(#paint15_linear)" stroke="black" stroke-width="0.042" stroke-linecap="round"/>
    <path d="M163.017 378.239C157.657 381.294 154.977 382.849 149.616 385.904C144.202 382.849 141.468 381.294 136.054 378.239C141.414 375.183 144.095 373.629 149.455 370.573C154.923 373.682 157.603 375.183 163.017 378.239Z" fill="url(#paint16_linear)" stroke="black" stroke-width="0.042" stroke-linecap="round"/>
    <path d="M182.798 366.928C177.437 369.983 174.757 371.538 169.396 374.593C163.982 371.538 161.248 369.983 155.834 366.928C161.195 363.872 163.875 362.318 169.236 359.262C174.703 362.318 177.384 363.819 182.798 366.928Z" fill="url(#paint17_linear)" stroke="black" stroke-width="0.042" stroke-linecap="round"/>
    <path d="M202.578 355.564C197.218 358.619 194.537 360.174 189.177 363.229C183.763 360.174 181.082 358.619 175.615 355.564C180.975 352.508 183.655 350.953 189.016 347.898C194.43 350.953 197.164 352.508 202.578 355.564Z" fill="url(#paint18_linear)" stroke="black" stroke-width="0.042" stroke-linecap="round"/>
    <path d="M222.305 344.199C216.944 347.255 214.264 348.809 208.904 351.865C203.489 348.809 200.809 347.255 195.341 344.199C200.702 341.144 203.382 339.589 208.743 336.534C214.211 339.589 216.891 341.144 222.305 344.199Z" fill="url(#paint19_linear)" stroke="black" stroke-width="0.042" stroke-linecap="round"/>
    <path d="M242.085 332.835C236.725 335.89 234.044 337.445 228.684 340.5C223.27 337.445 220.536 335.89 215.122 332.835C220.482 329.779 223.163 328.225 228.523 325.169C233.991 328.278 236.671 329.779 242.085 332.835Z" fill="url(#paint20_linear)" stroke="black" stroke-width="0.042" stroke-linecap="round"/>
    <path d="M261.866 321.524C256.505 324.58 253.825 326.134 248.464 329.19C243.05 326.134 240.316 324.58 234.902 321.524C240.263 318.469 242.943 316.914 248.304 313.859C253.718 316.914 256.452 318.469 261.866 321.524Z" fill="url(#paint21_linear)" stroke="black" stroke-width="0.042" stroke-linecap="round"/>
    <path d="M281.593 310.16C276.232 313.215 273.552 314.77 268.191 317.825C262.777 314.77 260.043 313.215 254.629 310.16C259.99 307.104 262.67 305.55 268.03 302.494C273.498 305.55 276.178 307.104 281.593 310.16Z" fill="url(#paint22_linear)" stroke="black" stroke-width="0.042" stroke-linecap="round"/>
    <path d="M301.373 298.795C296.012 301.851 293.332 303.405 287.971 306.461C282.557 303.405 279.823 301.851 274.409 298.795C279.77 295.74 282.45 294.185 287.811 291.13C293.278 294.239 295.959 295.74 301.373 298.795Z" fill="url(#paint23_linear)" stroke="black" stroke-width="0.042" stroke-linecap="round"/>
    <path d="M321.153 287.485C315.793 290.54 313.113 292.095 307.752 295.15C302.338 292.095 299.658 290.54 294.19 287.485C299.55 284.429 302.231 282.875 307.591 279.819C313.005 282.875 315.739 284.376 321.153 287.485Z" fill="url(#paint24_linear)" stroke="black" stroke-width="0.042" stroke-linecap="round"/>
    <path d="M340.88 276.12C331.928 281.266 327.425 283.839 318.419 288.986C313.005 285.93 310.271 284.375 304.857 281.32C313.863 276.174 318.312 273.601 327.318 268.455C332.786 271.51 335.466 273.065 340.88 276.12Z" fill="url(#paint25_linear)" stroke="black" stroke-width="0.042" stroke-linecap="round"/>
    <path d="M151.385 406.596C142.486 411.688 138.037 414.261 129.139 419.354C123.725 416.298 121.044 414.744 115.577 411.688C124.475 406.596 128.924 404.023 137.823 398.93C143.237 402.039 145.971 403.54 151.385 406.596Z" fill="url(#paint26_linear)" stroke="black" stroke-width="0.042" stroke-linecap="round"/>
    <path d="M162.267 400.324C156.906 403.38 154.226 404.934 148.866 407.99C143.451 404.934 140.771 403.38 135.303 400.324C140.664 397.269 143.344 395.714 148.705 392.658C154.172 395.768 156.853 397.269 162.267 400.324Z" fill="url(#paint27_linear)" stroke="black" stroke-width="0.042" stroke-linecap="round"/>
    <path d="M182.047 389.013C176.687 392.069 174.006 393.623 168.646 396.679C163.232 393.623 160.498 392.069 155.084 389.013C160.444 385.958 163.125 384.403 168.485 381.348C173.899 384.403 176.633 385.904 182.047 389.013Z" fill="url(#paint28_linear)" stroke="black" stroke-width="0.042" stroke-linecap="round"/>
    <path d="M201.828 377.649C196.467 380.704 193.787 382.259 188.426 385.315C183.012 382.259 180.278 380.704 174.864 377.649C180.225 374.593 182.905 373.039 188.265 369.983C193.68 373.039 196.36 374.593 201.828 377.649Z" fill="url(#paint29_linear)" stroke="black" stroke-width="0.042" stroke-linecap="round"/>
    <path d="M221.554 366.285C216.194 369.34 213.514 370.895 208.153 373.95C202.739 370.895 200.059 369.34 194.591 366.285C199.951 363.229 202.632 361.675 207.992 358.619C213.46 361.675 216.14 363.229 221.554 366.285Z" fill="url(#paint30_linear)" stroke="black" stroke-width="0.042" stroke-linecap="round"/>
    <path d="M241.335 354.92C235.974 357.976 233.294 359.53 227.933 362.586C222.519 359.53 219.839 357.976 214.371 354.92C219.732 351.865 222.412 350.31 227.773 347.255C233.187 350.364 235.921 351.865 241.335 354.92Z" fill="url(#paint31_linear)" stroke="black" stroke-width="0.042" stroke-linecap="round"/>
    <path d="M261.062 343.609C255.701 346.665 253.021 348.219 247.66 351.275C242.246 348.219 239.566 346.665 234.098 343.609C239.459 340.554 242.139 338.999 247.499 335.944C252.967 338.999 255.701 340.554 261.062 343.609Z" fill="url(#paint32_linear)" stroke="black" stroke-width="0.042" stroke-linecap="round"/>
    <path d="M280.842 332.245C275.481 335.301 272.801 336.855 267.441 339.911C262.026 336.855 259.293 335.301 253.878 332.245C259.239 329.19 261.919 327.635 267.28 324.58C272.748 327.635 275.428 329.19 280.842 332.245Z" fill="url(#paint33_linear)" stroke="black" stroke-width="0.042" stroke-linecap="round"/>
    <path d="M300.622 320.881C295.262 323.936 292.582 325.491 287.221 328.546C281.807 325.491 279.073 323.936 273.659 320.881C279.019 317.825 281.7 316.271 287.06 313.215C292.474 316.324 295.208 317.825 300.622 320.881Z" fill="url(#paint34_linear)" stroke="black" stroke-width="0.042" stroke-linecap="round"/>
    <path d="M320.403 309.57C315.042 312.626 312.362 314.18 307.001 317.236C301.587 314.18 298.853 312.626 293.439 309.57C298.8 306.515 301.48 304.96 306.841 301.905C312.255 304.96 314.935 306.515 320.403 309.57Z" fill="url(#paint35_linear)" stroke="black" stroke-width="0.042" stroke-linecap="round"/>
    <path d="M340.13 298.206C334.769 301.261 332.089 302.816 326.728 305.871C321.314 302.816 318.634 301.261 313.166 298.206C318.527 295.15 321.207 293.596 326.567 290.54C332.035 293.596 334.715 295.15 340.13 298.206Z" fill="url(#paint36_linear)" stroke="black" stroke-width="0.042" stroke-linecap="round"/>
    <path d="M359.91 286.841C354.55 289.897 351.869 291.451 346.509 294.507C341.095 291.451 338.361 289.897 332.947 286.841C338.307 283.786 340.987 282.231 346.348 279.176C351.762 282.285 354.496 283.786 359.91 286.841Z" fill="url(#paint37_linear)" stroke="black" stroke-width="0.042" stroke-linecap="round"/>
    <path d="M161.516 422.409C156.156 425.465 153.476 427.019 148.115 430.075C142.701 427.019 140.021 425.465 134.553 422.409C139.913 419.354 142.594 417.799 147.954 414.744C153.368 417.853 156.102 419.354 161.516 422.409Z" fill="url(#paint38_linear)" stroke="black" stroke-width="0.042" stroke-linecap="round"/>
    <path d="M181.297 411.099C175.936 414.154 173.256 415.709 167.895 418.764C162.481 415.709 159.801 414.154 154.333 411.099C159.694 408.043 162.374 406.489 167.735 403.433C173.149 406.489 175.883 407.99 181.297 411.099Z" fill="url(#paint39_linear)" stroke="black" stroke-width="0.042" stroke-linecap="round"/>
    <path d="M201.024 399.734C195.663 402.79 192.983 404.344 187.622 407.4C182.208 404.344 179.474 402.79 174.06 399.734C179.421 396.679 182.101 395.124 187.461 392.069C192.929 395.124 195.609 396.679 201.024 399.734Z" fill="url(#paint40_linear)" stroke="black" stroke-width="0.042" stroke-linecap="round"/>
    <path d="M220.804 388.37C215.443 391.426 212.763 392.98 207.403 396.036C201.988 392.98 199.255 391.426 193.84 388.37C199.201 385.315 201.881 383.76 207.242 380.704C212.656 383.814 215.39 385.315 220.804 388.37Z" fill="url(#paint41_linear)" stroke="black" stroke-width="0.042" stroke-linecap="round"/>
    <path d="M240.584 377.059C235.224 380.115 232.544 381.669 227.183 384.725C221.769 381.669 219.089 380.115 213.621 377.059C218.981 374.004 221.662 372.449 227.022 369.394C232.436 372.449 235.17 373.95 240.584 377.059Z" fill="url(#paint42_linear)" stroke="black" stroke-width="0.042" stroke-linecap="round"/>
    <path d="M260.311 365.695C254.951 368.75 252.27 370.305 246.91 373.361C241.496 370.305 238.815 368.75 233.348 365.695C238.708 362.639 241.388 361.085 246.749 358.029C252.217 361.085 254.897 362.639 260.311 365.695Z" fill="url(#paint43_linear)" stroke="black" stroke-width="0.042" stroke-linecap="round"/>
    <path d="M280.092 354.331C274.731 357.386 272.051 358.941 266.69 361.996C261.276 358.941 258.596 357.386 253.128 354.331C258.489 351.275 261.169 349.721 266.529 346.665C271.944 349.721 274.677 351.275 280.092 354.331Z" fill="url(#paint44_linear)" stroke="black" stroke-width="0.042" stroke-linecap="round"/>
    <path d="M299.872 342.966C294.511 346.022 291.831 347.576 286.471 350.632C281.056 347.576 278.323 346.022 272.908 342.966C278.269 339.911 280.949 338.356 286.31 335.301C291.724 338.41 294.458 339.911 299.872 342.966Z" fill="url(#paint45_linear)" stroke="black" stroke-width="0.042" stroke-linecap="round"/>
    <path d="M319.599 331.655C314.238 334.711 311.558 336.266 306.197 339.321C300.783 336.266 298.049 334.711 292.635 331.655C297.996 328.6 300.676 327.045 306.037 323.99C311.504 327.045 314.185 328.6 319.599 331.655Z" fill="url(#paint46_linear)" stroke="black" stroke-width="0.042" stroke-linecap="round"/>
    <path d="M339.379 320.291C334.019 323.347 331.338 324.901 325.978 327.957C320.564 324.901 317.883 323.347 312.416 320.291C317.776 317.236 320.456 315.681 325.817 312.625C331.231 315.681 333.965 317.236 339.379 320.291Z" fill="url(#paint47_linear)" stroke="black" stroke-width="0.042" stroke-linecap="round"/>
    <path d="M367.683 304.049C358.892 309.088 354.549 311.607 345.758 316.646C340.344 313.591 337.61 312.036 332.196 308.98C340.987 303.942 345.329 301.422 354.121 296.383C359.535 299.439 362.269 300.993 367.683 304.049Z" fill="url(#paint48_linear)" stroke="black" stroke-width="0.042" stroke-linecap="round"/>
    <path d="M378.886 297.616C373.526 300.672 370.845 302.226 365.485 305.282C360.071 302.226 357.39 300.672 351.923 297.616C357.283 294.56 359.964 293.006 365.324 289.95C370.792 293.006 373.472 294.507 378.886 297.616Z" fill="url(#paint49_linear)" stroke="black" stroke-width="0.042" stroke-linecap="round"/>
    <path d="M183.119 434.631C177.759 437.687 175.079 439.242 169.718 442.297C164.304 439.242 161.624 437.687 156.156 434.631C161.516 431.576 164.197 430.021 169.557 426.966C175.025 430.075 177.705 431.576 183.119 434.631Z" fill="url(#paint50_linear)" stroke="black" stroke-width="0.042" stroke-linecap="round"/>
    <path d="M202.9 423.321C197.539 426.376 194.859 427.931 189.498 430.986C184.084 427.931 181.404 426.376 175.936 423.321C181.297 420.265 183.977 418.711 189.338 415.655C194.752 418.711 197.486 420.265 202.9 423.321Z" fill="url(#paint51_linear)" stroke="black" stroke-width="0.042" stroke-linecap="round"/>
    <path d="M222.68 411.956C217.32 415.012 214.639 416.567 209.279 419.622C203.865 416.567 201.184 415.012 195.717 411.956C201.077 408.901 203.757 407.346 209.118 404.291C214.532 407.346 217.266 408.901 222.68 411.956Z" fill="url(#paint52_linear)" stroke="black" stroke-width="0.042" stroke-linecap="round"/>
    <path d="M341.255 343.877C303.839 365.373 266.476 386.815 229.059 408.311C223.645 405.256 220.911 403.701 215.497 400.646C252.914 379.15 290.277 357.708 327.693 336.212C333.107 339.267 335.841 340.822 341.255 343.877Z" fill="url(#paint53_linear)" stroke="black" stroke-width="0.042" stroke-linecap="round"/>
    <path d="M360.982 332.513C355.622 335.569 352.941 337.123 347.581 340.179C342.167 337.123 339.486 335.569 334.072 332.513C339.433 329.458 342.113 327.903 347.474 324.848C352.888 327.903 355.568 329.458 360.982 332.513Z" fill="url(#paint54_linear)" stroke="black" stroke-width="0.042" stroke-linecap="round"/>
    <path d="M380.763 321.149C375.402 324.204 372.722 325.759 367.361 328.814C361.947 325.759 359.267 324.204 353.799 321.149C359.16 318.093 361.84 316.539 367.2 313.483C372.668 316.592 375.348 318.093 380.763 321.149Z" fill="url(#paint55_linear)" stroke="black" stroke-width="0.042" stroke-linecap="round"/>
    <path d="M400.543 309.838C395.182 312.894 392.502 314.448 387.142 317.504C381.727 314.448 379.047 312.894 373.633 309.838C378.994 306.783 381.674 305.228 387.034 302.173C392.395 305.228 395.129 306.783 400.543 309.838Z" fill="url(#paint56_linear)" stroke="black" stroke-width="0.042" stroke-linecap="round"/>
    <path d="M249.536 413.779L341.845 360.549L394.539 393.033L302.338 446.317L249.536 413.779Z" fill="url(#paint57_linear)" stroke="black" stroke-width="0.042"/>
    <defs>
        <linearGradient id="paint0_linear" x1="164.706" y1="4.0415" x2="164.706" y2="385.475" gradientUnits="userSpaceOnUse">
            <stop stop-color="#14151B"/>
            <stop offset="1" stop-color="#1A1B22"/>
        </linearGradient>
        <linearGradient id="paint1_linear" x1="165.054" y1="17.9031" x2="165.054" y2="366.017" gradientUnits="userSpaceOnUse">
            <stop stop-color="#14151B"/>
            <stop offset="1" stop-color="#1A1B22"/>
        </linearGradient>
        <linearGradient id="paint2_linear" x1="91.0521" y1="382.527" x2="91.0521" y2="397.858" gradientUnits="userSpaceOnUse">
            <stop stop-color="#1B1C23"/>
            <stop offset="1" stop-color="#282932"/>
        </linearGradient>
        <linearGradient id="paint3_linear" x1="110.779" y1="371.216" x2="110.779" y2="386.547" gradientUnits="userSpaceOnUse">
            <stop stop-color="#1B1C23"/>
            <stop offset="1" stop-color="#282932"/>
        </linearGradient>
        <linearGradient id="paint4_linear" x1="130.559" y1="359.852" x2="130.559" y2="375.183" gradientUnits="userSpaceOnUse">
            <stop stop-color="#1B1C23"/>
            <stop offset="1" stop-color="#282932"/>
        </linearGradient>
        <linearGradient id="paint5_linear" x1="150.34" y1="348.488" x2="150.34" y2="363.819" gradientUnits="userSpaceOnUse">
            <stop stop-color="#1B1C23"/>
            <stop offset="1" stop-color="#282932"/>
        </linearGradient>
        <linearGradient id="paint6_linear" x1="170.066" y1="337.123" x2="170.066" y2="352.454" gradientUnits="userSpaceOnUse">
            <stop stop-color="#1B1C23"/>
            <stop offset="1" stop-color="#282932"/>
        </linearGradient>
        <linearGradient id="paint7_linear" x1="189.874" y1="325.812" x2="189.874" y2="341.144" gradientUnits="userSpaceOnUse">
            <stop stop-color="#1B1C23"/>
            <stop offset="1" stop-color="#282932"/>
        </linearGradient>
        <linearGradient id="paint8_linear" x1="209.627" y1="314.448" x2="209.627" y2="329.779" gradientUnits="userSpaceOnUse">
            <stop stop-color="#1B1C23"/>
            <stop offset="1" stop-color="#282932"/>
        </linearGradient>
        <linearGradient id="paint9_linear" x1="229.354" y1="303.084" x2="229.354" y2="318.415" gradientUnits="userSpaceOnUse">
            <stop stop-color="#1B1C23"/>
            <stop offset="1" stop-color="#282932"/>
        </linearGradient>
        <linearGradient id="paint10_linear" x1="249.134" y1="291.773" x2="249.134" y2="307.104" gradientUnits="userSpaceOnUse">
            <stop stop-color="#1B1C23"/>
            <stop offset="1" stop-color="#282932"/>
        </linearGradient>
        <linearGradient id="paint11_linear" x1="268.915" y1="280.409" x2="268.915" y2="295.74" gradientUnits="userSpaceOnUse">
            <stop stop-color="#1B1C23"/>
            <stop offset="1" stop-color="#282932"/>
        </linearGradient>
        <linearGradient id="paint12_linear" x1="288.642" y1="269.044" x2="288.642" y2="284.376" gradientUnits="userSpaceOnUse">
            <stop stop-color="#1B1C23"/>
            <stop offset="1" stop-color="#282932"/>
        </linearGradient>
        <linearGradient id="paint13_linear" x1="308.422" y1="257.734" x2="308.422" y2="273.065" gradientUnits="userSpaceOnUse">
            <stop stop-color="#1B1C23"/>
            <stop offset="1" stop-color="#282932"/>
        </linearGradient>
        <linearGradient id="paint14_linear" x1="110.028" y1="393.302" x2="110.028" y2="408.633" gradientUnits="userSpaceOnUse">
            <stop stop-color="#1B1C23"/>
            <stop offset="1" stop-color="#282932"/>
        </linearGradient>
        <linearGradient id="paint15_linear" x1="129.809" y1="381.937" x2="129.809" y2="397.269" gradientUnits="userSpaceOnUse">
            <stop stop-color="#1B1C23"/>
            <stop offset="1" stop-color="#282932"/>
        </linearGradient>
        <linearGradient id="paint16_linear" x1="149.536" y1="370.573" x2="149.536" y2="385.904" gradientUnits="userSpaceOnUse">
            <stop stop-color="#1B1C23"/>
            <stop offset="1" stop-color="#282932"/>
        </linearGradient>
        <linearGradient id="paint17_linear" x1="169.316" y1="359.262" x2="169.316" y2="374.593" gradientUnits="userSpaceOnUse">
            <stop stop-color="#1B1C23"/>
            <stop offset="1" stop-color="#282932"/>
        </linearGradient>
        <linearGradient id="paint18_linear" x1="189.096" y1="347.898" x2="189.096" y2="363.229" gradientUnits="userSpaceOnUse">
            <stop stop-color="#1B1C23"/>
            <stop offset="1" stop-color="#282932"/>
        </linearGradient>
        <linearGradient id="paint19_linear" x1="208.823" y1="336.534" x2="208.823" y2="351.865" gradientUnits="userSpaceOnUse">
            <stop stop-color="#1B1C23"/>
            <stop offset="1" stop-color="#282932"/>
        </linearGradient>
        <linearGradient id="paint20_linear" x1="228.603" y1="325.169" x2="228.603" y2="340.5" gradientUnits="userSpaceOnUse">
            <stop stop-color="#1B1C23"/>
            <stop offset="1" stop-color="#282932"/>
        </linearGradient>
        <linearGradient id="paint21_linear" x1="248.384" y1="313.859" x2="248.384" y2="329.19" gradientUnits="userSpaceOnUse">
            <stop stop-color="#1B1C23"/>
            <stop offset="1" stop-color="#282932"/>
        </linearGradient>
        <linearGradient id="paint22_linear" x1="268.111" y1="302.494" x2="268.111" y2="317.825" gradientUnits="userSpaceOnUse">
            <stop stop-color="#1B1C23"/>
            <stop offset="1" stop-color="#282932"/>
        </linearGradient>
        <linearGradient id="paint23_linear" x1="287.891" y1="291.13" x2="287.891" y2="306.461" gradientUnits="userSpaceOnUse">
            <stop stop-color="#1B1C23"/>
            <stop offset="1" stop-color="#282932"/>
        </linearGradient>
        <linearGradient id="paint24_linear" x1="307.672" y1="279.819" x2="307.672" y2="295.15" gradientUnits="userSpaceOnUse">
            <stop stop-color="#1B1C23"/>
            <stop offset="1" stop-color="#282932"/>
        </linearGradient>
        <linearGradient id="paint25_linear" x1="322.869" y1="268.455" x2="322.869" y2="288.986" gradientUnits="userSpaceOnUse">
            <stop stop-color="#1B1C23"/>
            <stop offset="1" stop-color="#282932"/>
        </linearGradient>
        <linearGradient id="paint26_linear" x1="133.481" y1="398.93" x2="133.481" y2="419.354" gradientUnits="userSpaceOnUse">
            <stop stop-color="#1B1C23"/>
            <stop offset="1" stop-color="#282932"/>
        </linearGradient>
        <linearGradient id="paint27_linear" x1="148.785" y1="392.658" x2="148.785" y2="407.99" gradientUnits="userSpaceOnUse">
            <stop stop-color="#1B1C23"/>
            <stop offset="1" stop-color="#282932"/>
        </linearGradient>
        <linearGradient id="paint28_linear" x1="168.565" y1="381.348" x2="168.565" y2="396.679" gradientUnits="userSpaceOnUse">
            <stop stop-color="#1B1C23"/>
            <stop offset="1" stop-color="#282932"/>
        </linearGradient>
        <linearGradient id="paint29_linear" x1="188.346" y1="369.983" x2="188.346" y2="385.315" gradientUnits="userSpaceOnUse">
            <stop stop-color="#1B1C23"/>
            <stop offset="1" stop-color="#282932"/>
        </linearGradient>
        <linearGradient id="paint30_linear" x1="208.073" y1="358.619" x2="208.073" y2="373.95" gradientUnits="userSpaceOnUse">
            <stop stop-color="#1B1C23"/>
            <stop offset="1" stop-color="#282932"/>
        </linearGradient>
        <linearGradient id="paint31_linear" x1="227.853" y1="347.255" x2="227.853" y2="362.586" gradientUnits="userSpaceOnUse">
            <stop stop-color="#1B1C23"/>
            <stop offset="1" stop-color="#282932"/>
        </linearGradient>
        <linearGradient id="paint32_linear" x1="247.58" y1="335.944" x2="247.58" y2="351.275" gradientUnits="userSpaceOnUse">
            <stop stop-color="#1B1C23"/>
            <stop offset="1" stop-color="#282932"/>
        </linearGradient>
        <linearGradient id="paint33_linear" x1="267.36" y1="324.58" x2="267.36" y2="339.911" gradientUnits="userSpaceOnUse">
            <stop stop-color="#1B1C23"/>
            <stop offset="1" stop-color="#282932"/>
        </linearGradient>
        <linearGradient id="paint34_linear" x1="287.141" y1="313.215" x2="287.141" y2="328.546" gradientUnits="userSpaceOnUse">
            <stop stop-color="#1B1C23"/>
            <stop offset="1" stop-color="#282932"/>
        </linearGradient>
        <linearGradient id="paint35_linear" x1="306.921" y1="301.905" x2="306.921" y2="317.236" gradientUnits="userSpaceOnUse">
            <stop stop-color="#1B1C23"/>
            <stop offset="1" stop-color="#282932"/>
        </linearGradient>
        <linearGradient id="paint36_linear" x1="326.648" y1="290.54" x2="326.648" y2="305.871" gradientUnits="userSpaceOnUse">
            <stop stop-color="#1B1C23"/>
            <stop offset="1" stop-color="#282932"/>
        </linearGradient>
        <linearGradient id="paint37_linear" x1="346.428" y1="279.176" x2="346.428" y2="294.507" gradientUnits="userSpaceOnUse">
            <stop stop-color="#1B1C23"/>
            <stop offset="1" stop-color="#282932"/>
        </linearGradient>
        <linearGradient id="paint38_linear" x1="148.035" y1="414.744" x2="148.035" y2="430.075" gradientUnits="userSpaceOnUse">
            <stop stop-color="#1B1C23"/>
            <stop offset="1" stop-color="#282932"/>
        </linearGradient>
        <linearGradient id="paint39_linear" x1="167.815" y1="403.433" x2="167.815" y2="418.764" gradientUnits="userSpaceOnUse">
            <stop stop-color="#1B1C23"/>
            <stop offset="1" stop-color="#282932"/>
        </linearGradient>
        <linearGradient id="paint40_linear" x1="187.542" y1="392.069" x2="187.542" y2="407.4" gradientUnits="userSpaceOnUse">
            <stop stop-color="#1B1C23"/>
            <stop offset="1" stop-color="#282932"/>
        </linearGradient>
        <linearGradient id="paint41_linear" x1="207.322" y1="380.704" x2="207.322" y2="396.036" gradientUnits="userSpaceOnUse">
            <stop stop-color="#1B1C23"/>
            <stop offset="1" stop-color="#282932"/>
        </linearGradient>
        <linearGradient id="paint42_linear" x1="227.103" y1="369.394" x2="227.103" y2="384.725" gradientUnits="userSpaceOnUse">
            <stop stop-color="#1B1C23"/>
            <stop offset="1" stop-color="#282932"/>
        </linearGradient>
        <linearGradient id="paint43_linear" x1="246.829" y1="358.029" x2="246.829" y2="373.361" gradientUnits="userSpaceOnUse">
            <stop stop-color="#1B1C23"/>
            <stop offset="1" stop-color="#282932"/>
        </linearGradient>
        <linearGradient id="paint44_linear" x1="266.61" y1="346.665" x2="266.61" y2="361.996" gradientUnits="userSpaceOnUse">
            <stop stop-color="#1B1C23"/>
            <stop offset="1" stop-color="#282932"/>
        </linearGradient>
        <linearGradient id="paint45_linear" x1="286.39" y1="335.301" x2="286.39" y2="350.632" gradientUnits="userSpaceOnUse">
            <stop stop-color="#1B1C23"/>
            <stop offset="1" stop-color="#282932"/>
        </linearGradient>
        <linearGradient id="paint46_linear" x1="306.117" y1="323.99" x2="306.117" y2="339.321" gradientUnits="userSpaceOnUse">
            <stop stop-color="#1B1C23"/>
            <stop offset="1" stop-color="#282932"/>
        </linearGradient>
        <linearGradient id="paint47_linear" x1="325.897" y1="312.625" x2="325.897" y2="327.957" gradientUnits="userSpaceOnUse">
            <stop stop-color="#1B1C23"/>
            <stop offset="1" stop-color="#282932"/>
        </linearGradient>
        <linearGradient id="paint48_linear" x1="349.939" y1="296.383" x2="349.939" y2="316.646" gradientUnits="userSpaceOnUse">
            <stop stop-color="#1B1C23"/>
            <stop offset="1" stop-color="#282932"/>
        </linearGradient>
        <linearGradient id="paint49_linear" x1="365.404" y1="289.95" x2="365.404" y2="305.282" gradientUnits="userSpaceOnUse">
            <stop stop-color="#1B1C23"/>
            <stop offset="1" stop-color="#282932"/>
        </linearGradient>
        <linearGradient id="paint50_linear" x1="169.638" y1="426.966" x2="169.638" y2="442.297" gradientUnits="userSpaceOnUse">
            <stop stop-color="#1B1C23"/>
            <stop offset="1" stop-color="#282932"/>
        </linearGradient>
        <linearGradient id="paint51_linear" x1="189.418" y1="415.655" x2="189.418" y2="430.986" gradientUnits="userSpaceOnUse">
            <stop stop-color="#1B1C23"/>
            <stop offset="1" stop-color="#282932"/>
        </linearGradient>
        <linearGradient id="paint52_linear" x1="209.198" y1="404.291" x2="209.198" y2="419.622" gradientUnits="userSpaceOnUse">
            <stop stop-color="#1B1C23"/>
            <stop offset="1" stop-color="#282932"/>
        </linearGradient>
        <linearGradient id="paint53_linear" x1="278.376" y1="336.212" x2="278.376" y2="408.311" gradientUnits="userSpaceOnUse">
            <stop stop-color="#1B1C23"/>
            <stop offset="1" stop-color="#282932"/>
        </linearGradient>
        <linearGradient id="paint54_linear" x1="347.527" y1="324.848" x2="347.527" y2="340.179" gradientUnits="userSpaceOnUse">
            <stop stop-color="#1B1C23"/>
            <stop offset="1" stop-color="#282932"/>
        </linearGradient>
        <linearGradient id="paint55_linear" x1="367.281" y1="313.483" x2="367.281" y2="328.814" gradientUnits="userSpaceOnUse">
            <stop stop-color="#1B1C23"/>
            <stop offset="1" stop-color="#282932"/>
        </linearGradient>
        <linearGradient id="paint56_linear" x1="387.088" y1="302.173" x2="387.088" y2="317.504" gradientUnits="userSpaceOnUse">
            <stop stop-color="#1B1C23"/>
            <stop offset="1" stop-color="#282932"/>
        </linearGradient>
        <linearGradient id="paint57_linear" x1="322.038" y1="360.549" x2="322.038" y2="446.317" gradientUnits="userSpaceOnUse">
            <stop stop-color="#1B1C23"/>
            <stop offset="1" stop-color="#282932"/>
        </linearGradient>
    </defs>
</svg>
