<svg width="77" height="31" viewBox="0 0 77 31" fill="none" xmlns="http://www.w3.org/2000/svg">
<path fill-rule="evenodd" clip-rule="evenodd" d="M4 8C6.20914 8 8 6.20914 8 4C8 1.79086 6.20914 0 4 0C1.79086 0 0 1.79086 0 4C0 6.20914 1.79086 8 4 8Z" fill="#0094F5"/>
<path fill-rule="evenodd" clip-rule="evenodd" d="M4 31C6.20914 31 8 29.2091 8 27C8 24.7909 6.20914 23 4 23C1.79086 23 0 24.7909 0 27C0 29.2091 1.79086 31 4 31Z" fill="#0094F5"/>
<path fill-rule="evenodd" clip-rule="evenodd" d="M27 8C29.2091 8 31 6.20914 31 4C31 1.79086 29.2091 0 27 0C24.7909 0 23 1.79086 23 4C23 6.20914 24.7909 8 27 8Z" fill="#0094F5"/>
<path fill-rule="evenodd" clip-rule="evenodd" d="M27 31C29.2091 31 31 29.2091 31 27C31 24.7909 29.2091 23 27 23C24.7909 23 23 24.7909 23 27C23 29.2091 24.7909 31 27 31Z" fill="#0094F5"/>
<path fill-rule="evenodd" clip-rule="evenodd" d="M50 8C52.2091 8 54 6.20914 54 4C54 1.79086 52.2091 0 50 0C47.7909 0 46 1.79086 46 4C46 6.20914 47.7909 8 50 8Z" fill="#0094F5"/>
<path fill-rule="evenodd" clip-rule="evenodd" d="M50 31C52.2091 31 54 29.2091 54 27C54 24.7909 52.2091 23 50 23C47.7909 23 46 24.7909 46 27C46 29.2091 47.7909 31 50 31Z" fill="#0094F5"/>
<path fill-rule="evenodd" clip-rule="evenodd" d="M73 8C75.2091 8 77 6.20914 77 4C77 1.79086 75.2091 0 73 0C70.7909 0 69 1.79086 69 4C69 6.20914 70.7909 8 73 8Z" fill="#0094F5"/>
<path fill-rule="evenodd" clip-rule="evenodd" d="M73 31C75.2091 31 77 29.2091 77 27C77 24.7909 75.2091 23 73 23C70.7909 23 69 24.7909 69 27C69 29.2091 70.7909 31 73 31Z" fill="#0094F5"/>
</svg>
