<svg width="17" height="27" viewBox="0 0 17 27" fill="none" xmlns="http://www.w3.org/2000/svg">
<path d="M7.31 26.61H9.23V24.18C13.61 23.88 16.01 21.03 16.01 17.97C16.01 13.53 12.35 12.72 9.23 11.91V6.24C10.4 6.6 11.12 7.5 11.24 8.67H15.77C15.5 5.1 12.98 3.09 9.23 2.79V0.359999H7.31V2.79C3.41 3.09 0.59 5.4 0.59 8.94C0.59 13.38 4.22 14.25 7.31 15.03V20.76C5.93 20.46 5.21 19.53 5.09 18.15H0.59C0.68 21.75 3.44 23.82 7.31 24.15V26.61ZM11.66 18.15C11.66 19.5 10.76 20.55 9.23 20.82V15.57C10.64 16.05 11.66 16.74 11.66 18.15ZM4.97 8.73C4.97 7.2 5.93 6.36 7.31 6.15V11.34C5.93 10.86 4.97 10.14 4.97 8.73Z" fill="#0094F5"/>
</svg>
