<svg width="30" height="30" viewBox="0 0 30 30" fill="none" xmlns="http://www.w3.org/2000/svg">
<path fill-rule="evenodd" clip-rule="evenodd" d="M1.61611 15.0411C2.10428 14.553 2.89573 14.553 3.38389 15.0411L11.0464 22.7036C11.5345 23.1917 11.5345 23.9832 11.0464 24.4714C10.5582 24.9595 9.76678 24.9595 9.27861 24.4714L1.61611 16.8089C1.12796 16.3207 1.12796 15.5292 1.61611 15.0411Z" fill="#0094F5"/>
<path fill-rule="evenodd" clip-rule="evenodd" d="M28.3838 5.36611C28.872 5.85428 28.872 6.64572 28.3838 7.13389L11.0464 24.4714C10.5582 24.9595 9.76675 24.9595 9.2786 24.4714C8.79043 23.9833 8.79043 23.1918 9.2786 22.7036L26.6161 5.36611C27.1042 4.87796 27.8957 4.87796 28.3838 5.36611Z" fill="#0094F5"/>
</svg>
